<svg xmlns="http://www.w3.org/2000/svg" viewBox="0 0 131.11 95.16"><defs><style>.cls-1{opacity:0.15;}.cls-2{fill:#231f20;}.cls-3{fill:#4b6373;}.cls-4{fill:#eb9029;}.cls-5{fill:#ebe6ca;}.cls-6{fill:#eb5c1e;}</style></defs><title>FinalExplosion</title><g id="Layer_2" data-name="Layer 2"><g id="Layer_2-2" data-name="Layer 2"><g class="cls-1"><path class="cls-2" d="M29.2,90.52c-.67.53-1.34,1.06-1.95,1.58s-1.15,1-1.61,1.47-.84.83-1.09,1.11-.4.44-.4.44l0,0s.19-.11.49-.33.75-.52,1.26-.9,1.09-.86,1.7-1.37,1.23-1.11,1.86-1.69c2.54-2.28,5-4.59,5-4.59l0,0S31.83,88.36,29.2,90.52Z"/><path class="cls-2" d="M131.1,27.66s-1.27.44-3.16,1.15-4.38,1.71-6.86,2.74l-9.94,4.07v0l10-3.89c2.5-1,5-1.94,6.86-2.73s3.08-1.34,3.08-1.34Z"/><path class="cls-2" d="M98.48,70.34a11.92,11.92,0,0,0,.61-5.67,10.4,10.4,0,0,0-.53-2.15,8.09,8.09,0,0,0-.4-1A9.79,9.79,0,0,0,96,58.62a9.52,9.52,0,0,0-1.26-1h0a7.81,7.81,0,0,0-.88-.52l-.39-.19c-.18-.08-.35-.17-.53-.24s-.35-.12-.54-.18a3,3,0,0,0-.39-.13c-.22-.07-.43-.11-.65-.16s-.2-.05-.3-.06-.49-.08-.74-.11l-.2,0a7.69,7.69,0,0,0-.83,0h-.12c-.3,0-.59,0-.89,0h0A11.5,11.5,0,0,0,82,58.6,8.33,8.33,0,0,1,80.2,56c-1.44-2.93,4-9.47,6.72-11.26a26.33,26.33,0,0,1-3.59,1.15,9.51,9.51,0,0,0-1.12-9.47,9.38,9.38,0,0,0-.72-.82,10.78,10.78,0,0,0,1.6-3.49h0c.07-.26.13-.53.18-.8A10.47,10.47,0,0,0,83.44,29,12.2,12.2,0,0,0,75.8,18.46a13.31,13.31,0,0,0-3-.91,14,14,0,0,0-2.4-.23h-.08a14.38,14.38,0,0,0-2.09.16l-.34.06a13.05,13.05,0,0,0-3.52,1.19l-.86.47A12.68,12.68,0,0,0,61.28,21a11.29,11.29,0,0,0-1.93,2.58,11.12,11.12,0,0,0-.85,2,13.67,13.67,0,0,0-10-.29c-.47.18-.93.37-1.37.59A11.34,11.34,0,0,0,41,33.89a12.6,12.6,0,0,0-.16,1.36A11.47,11.47,0,0,0,44,43.71,10.87,10.87,0,0,0,38.17,46l-.12.1a11,11,0,0,0-2.84,3.38,9.54,9.54,0,0,0-.64,1.38,10.06,10.06,0,0,0-.64,3.78A9.15,9.15,0,0,0,35.82,60h0a9.85,9.85,0,0,0,.93,1l.21.2A9.83,9.83,0,0,0,38,62l.11.07a10.74,10.74,0,0,0,1.11.6l.19.08a8.62,8.62,0,0,0,1.29.46l.09,0a10.12,10.12,0,0,0,2.91.32h0A10.88,10.88,0,0,0,50,61.27l.18-.15a8.69,8.69,0,0,1,5.54,4.31,10.45,10.45,0,0,0-5-.58,11.13,11.13,0,0,0-3,.84h0a11.28,11.28,0,0,0-1.14.61l-.31.18-.4.28c-.1.08-.21.15-.3.23l-.37.3-.3.27-.33.31c-.14.14-.27.29-.4.44s-.24.28-.35.43-.2.25-.29.38-.15.22-.22.33l-.25.4-.18.33c-.08.16-.15.31-.22.47s-.1.2-.14.3-.2.51-.28.77a.94.94,0,0,0,0,.16,5.48,5.48,0,0,0-.17.67c0,.1,0,.2-.06.3s-.06.38-.08.57l0,.31c0,.2,0,.4,0,.6a2.61,2.61,0,0,0,0,.28,6.51,6.51,0,0,0,.06.88h0a9,9,0,0,0,2.36,5c.21.23.44.45.67.66a10.37,10.37,0,0,0,8.15,2.46c.38,0,.74-.12,1.1-.2s.55-.15.82-.24l.21-.06a10.94,10.94,0,0,0,1.9-.87h0l.14-.08a8.35,8.35,0,0,0-.36,1.3l0,.2c0,.19-.06.38-.08.57s0,.26,0,.4,0,.28,0,.43,0,.59.06.89a8,8,0,0,0,.64,2.28,7.82,7.82,0,0,0,1.22,1.92c.17.19.34.37.52.55a9,9,0,0,0,1.18.93c.21.13.43.26.65.37a8.67,8.67,0,0,0,1.22.5,7.77,7.77,0,0,0,2.47.36c.26,0,.53,0,.79-.06a7.69,7.69,0,0,0,4.73-2.44c.17-.18.33-.38.49-.58a7.44,7.44,0,0,0,4.75,1,7.47,7.47,0,0,0,3.88-1.71l.13-.1a7.6,7.6,0,0,0,2.49-6.63,7.51,7.51,0,0,0-.23-1.09,7.41,7.41,0,0,0,2.24-1.23,8.2,8.2,0,0,0,.91-.86,9.19,9.19,0,0,0,.76-1,10.45,10.45,0,0,0,1.58.16A10.81,10.81,0,0,0,91,77.8l.41-.15a10.54,10.54,0,0,0,1.29-.57,12.25,12.25,0,0,0,2-1.3A11.25,11.25,0,0,0,96,74.48a12.18,12.18,0,0,0,1.12-1.43c.09-.13.16-.27.24-.4.23-.36.43-.74.62-1.11S98.33,70.74,98.48,70.34ZM77.54,66.77l-.12,0,.18-.35Z"/><path class="cls-2" d="M106.07,44.29a7.55,7.55,0,0,0-.94-2.06,7.65,7.65,0,0,0-.69-.9,8.5,8.5,0,0,0-3.81-2.47v0c0-.07,0-.14,0-.22a7.13,7.13,0,0,0-.3-1.31,6.44,6.44,0,0,0-.24-.61,6.63,6.63,0,0,0-1.46-2.08,6.93,6.93,0,0,0-1.54-1.09,6.31,6.31,0,0,0-1.18-.47l-.63-.15a6.17,6.17,0,0,0-1.3-.1,5.16,5.16,0,0,0-.67,0h0a4.5,4.5,0,0,0-.64.11l-.3.08-.32.09-.4.16-.18.07-.43.22h0l0,0h0l-.1,0q-.24.14-.48.3l0,0-.18.13h0l-.27.22h0l-.41.38,0,.05a5.66,5.66,0,0,0-.4.44h0c-.06.08-.13.16-.19.25l-.07.09a7.31,7.31,0,0,0-.43.7l-.06.1a7,7,0,0,0-.34.79l-.06.2a6.21,6.21,0,0,0-.2.74l0,.13a6.11,6.11,0,0,0-.09.86,2,2,0,0,0,0,.25,8.38,8.38,0,0,0,0,.86v0a6.64,6.64,0,0,0,1.15,3,6.48,6.48,0,0,0,.66.81,7.52,7.52,0,0,0,1.1,7.24A8.77,8.77,0,0,0,98,54.58c.23,0,.47,0,.7,0l.39-.07.41-.07.44-.11.35-.1.13,0,.31-.12.32-.12.43-.18.28-.14.42-.23.25-.15.27-.16.15-.11.19-.14c.14-.11.28-.21.42-.33l.09-.08A8.55,8.55,0,0,0,105,50.78c.15-.22.29-.45.42-.68a7.58,7.58,0,0,0,.92-4.67A7.19,7.19,0,0,0,106.07,44.29Z"/><path class="cls-2" d="M18.59,29c-.28-.15-.63-.24-.94-.38-1.26-.54-2.58-1-2.58-1l-.06.1s1.06.9,2.18,1.7c.28.2.53.45.8.62a3,3,0,0,0,.83.31,2.9,2.9,0,0,0,.95.06l.05-.1a2.9,2.9,0,0,0-.54-.77A2.78,2.78,0,0,0,18.59,29Z"/><path class="cls-2" d="M87.79,5c.23-.46.53-.89.73-1.33a6.72,6.72,0,0,0,.4-1.26,5.53,5.53,0,0,0,.14-1.34L89,1a5.21,5.21,0,0,0-.89,1,6.83,6.83,0,0,0-.66,1.15c-.18.44-.3,1-.47,1.44-.69,1.95-1.28,3.94-1.28,3.94l.11,0S86.83,6.81,87.79,5Z"/><path class="cls-2" d="M106.28,13.11c1.88-1.94,3.76-3.89,5.15-5.37s2.3-2.47,2.3-2.47h0s-1,1-2.37,2.41-3.29,3.4-5.15,5.36l-7.46,7.83h0Z"/><path class="cls-2" d="M4.13,48.82c-1.74-.27-2.9-.42-2.9-.42h0s1.16.22,2.9.51,4.06.67,6.38,1l9.29,1.44v0l-9.28-1.53C8.2,49.44,5.88,49.06,4.13,48.82Z"/><path class="cls-2" d="M40,8.14c.22.2.48.39.72.6,1,.82,2,1.61,2,1.61l0,0s-.82-1-1.69-1.9c-.21-.23-.41-.48-.62-.69a3.92,3.92,0,0,0-.63-.51,3.83,3.83,0,0,0-.71-.41l0,0a4,4,0,0,0,.43.69A4.7,4.7,0,0,0,40,8.14Z"/></g><path class="cls-3" d="M33.32,85.28s-2.51,2.31-5,4.59c-.63.58-1.26,1.16-1.86,1.69s-1.19,1-1.7,1.37-.94.7-1.26.9-.49.33-.49.33l0,0s.14-.17.4-.44S24,93,24.42,92.57s1-.95,1.61-1.47,1.28-1,1.94-1.58c2.64-2.16,5.31-4.29,5.31-4.29Z"/><path class="cls-3" d="M109.91,34.62l10-4.07c2.48-1,5-2,6.86-2.74s3.16-1.15,3.16-1.15v0s-1.23.56-3.08,1.34-4.36,1.77-6.87,2.73l-10,3.89Z"/><path class="cls-4" d="M48.74,60.27a10.76,10.76,0,0,0,4-6.29,10.53,10.53,0,0,0,10.72-1.42,11.07,11.07,0,0,0,2.59-2.85,10.28,10.28,0,0,0,12.57-.29c4.56-3.51,5.61-9.79,2.36-14-.23-.29-.47-.56-.72-.82a11,11,0,0,0,1.78-4.28C83.2,24,78.51,17.8,71.59,16.55c-6.46-1.17-12.59,2.35-14.31,8a13.37,13.37,0,0,0-2.94-.88c-6.92-1.26-13.46,2.88-14.61,9.23a11.32,11.32,0,0,0,3.08,9.82A10.87,10.87,0,0,0,37,45c-4.56,3.51-5.61,9.78-2.35,14S44.19,63.79,48.74,60.27Z"/><path class="cls-4" d="M99.4,37.86a1.93,1.93,0,0,0,0-.24,6.55,6.55,0,1,0-13,1.62A6.69,6.69,0,0,0,88.2,43a7.58,7.58,0,0,0-.42,3.55c.55,4.43,4.87,7.54,9.65,7s8.2-4.67,7.65-9.1A8,8,0,0,0,99.4,37.86Z"/><path class="cls-4" d="M78.34,60.27a12.38,12.38,0,0,0-2,5.5,7.47,7.47,0,0,0-3.63,2.08A10,10,0,0,0,62,61.74,10.38,10.38,0,0,0,55.66,65a10.51,10.51,0,0,0-6.17-1.11C44,64.54,40,69.31,40.65,74.5s5.65,8.84,11.18,8.16A10.63,10.63,0,0,0,56,81.21a7.8,7.8,0,0,0,13.45,7.62,7.41,7.41,0,0,0,4.76,1,7.53,7.53,0,0,0,6.49-8.44,6.38,6.38,0,0,0-.22-1.09,7.48,7.48,0,0,0,3.91-3.1,11.54,11.54,0,0,0,11.5-5.17c3.54-5.28,2.49-12.2-2.36-15.45S81.88,55,78.34,60.27Z"/><path class="cls-5" d="M71.59,16.55c-6.46-1.17-12.59,2.35-14.31,8a13.37,13.37,0,0,0-2.94-.88c-6.92-1.26-13.46,2.88-14.61,9.23a11.32,11.32,0,0,0,3.08,9.82A10.87,10.87,0,0,0,37,45c-4.56,3.51-5.61,9.78-2.35,14a9.71,9.71,0,0,0,10.92,3,9,9,0,0,1-9.34-3.08c-3-4-2.06-9.84,2.21-13.14a10.2,10.2,0,0,1,5.5-2.12A10.61,10.61,0,0,1,41,34.44c1.07-6,7.21-9.84,13.7-8.66a12.61,12.61,0,0,1,2.76.83c1.61-5.29,7.36-8.6,13.42-7.5a12.11,12.11,0,0,1,9.3,7.52,15.86,15.86,0,0,1,1.69,4.48c.07-.26.13-.53.18-.8C83.2,24,78.51,17.8,71.59,16.55Z"/><path class="cls-6" d="M99.4,37.86a1.93,1.93,0,0,0,0-.24,6.59,6.59,0,0,0-7.32-5.76,6.47,6.47,0,0,0-4.24,2.36,6,6,0,0,1,2.26-.75A6.18,6.18,0,0,1,97,38.87a1.77,1.77,0,0,1,0,.23,7.54,7.54,0,0,1,5.33,6.16,7.81,7.81,0,0,1-6.13,8.33,10.9,10.9,0,0,0,1.27-.06c4.77-.6,8.2-4.67,7.65-9.1A8,8,0,0,0,99.4,37.86Z"/><path class="cls-6" d="M86.07,55.12a9.24,9.24,0,0,1,5.39,1.55c4.54,3,5.53,9.54,2.21,14.49A10.83,10.83,0,0,1,82.88,76a7,7,0,0,1-3.67,2.91,6.85,6.85,0,0,1,.22,1,7.07,7.07,0,0,1-6.1,7.92,6.93,6.93,0,0,1-4.45-1A7.26,7.26,0,0,1,64,89.73a7.35,7.35,0,0,1-8.16-6.43,7.73,7.73,0,0,1,0-1.44,7.88,7.88,0,0,0,8.45,10,7.72,7.72,0,0,0,5.21-3,7.41,7.41,0,0,0,4.76,1,7.53,7.53,0,0,0,6.49-8.44,6.38,6.38,0,0,0-.22-1.09,7.48,7.48,0,0,0,3.91-3.1,11.54,11.54,0,0,0,11.5-5.17c3.54-5.28,2.49-12.2-2.36-15.45A10,10,0,0,0,86.07,55.12Z"/><path class="cls-6" d="M56.25,79.76a10,10,0,0,1-3.9,1.35c-5.19.64-9.89-2.78-10.49-7.65a8.89,8.89,0,0,1,4.61-8.77,9.56,9.56,0,0,0-5.82,9.81c.64,5.19,5.65,8.84,11.18,8.16a10.76,10.76,0,0,0,4-1.37A7.8,7.8,0,0,1,56.25,79.76Z"/><path class="cls-5" d="M89.47,45.28a7.49,7.49,0,0,1,.42-3.56,6.66,6.66,0,0,1-.09-9.14A6.65,6.65,0,0,0,88.2,43a7.44,7.44,0,0,0-.42,3.55c.55,4.43,4.87,7.54,9.64,7A9.13,9.13,0,0,0,102.73,51a9.07,9.07,0,0,1-3.62,1.25C94.34,52.82,90,49.71,89.47,45.28Z"/><path class="cls-5" d="M58.86,27.58a11.09,11.09,0,0,1,5.89-1.49,7.36,7.36,0,0,0-11,7.65C54.15,31.56,56,29.16,58.86,27.58Z"/><path class="cls-5" d="M45.43,43a7.56,7.56,0,0,1,2.91-3,5,5,0,0,0-3.68,8.38A6.58,6.58,0,0,1,45.43,43Z"/><path class="cls-6" d="M80.14,77c-2.57,1.53-5.36,1.9-7.26,1.17A6.77,6.77,0,0,0,84,73,10.16,10.16,0,0,1,80.14,77Z"/><path class="cls-6" d="M62.73,83.83l0,0a4.74,4.74,0,0,0,.76,1.46,4.88,4.88,0,0,0,8.68-3.84,5.24,5.24,0,0,1-2,3.38A5.31,5.31,0,0,1,62.73,83.83Z"/><path class="cls-6" d="M56,78.15a5.33,5.33,0,0,1-.84-4.89,4.89,4.89,0,0,0,6.66,7.09,5.32,5.32,0,0,0,.73-.69A5.31,5.31,0,0,1,56,78.15Z"/><path class="cls-6" d="M64.4,47.16a6.13,6.13,0,0,1-5.55-1.54,5.67,5.67,0,0,0,10.74-3.48A5.79,5.79,0,0,0,69.22,41,6.13,6.13,0,0,1,64.4,47.16Z"/><path class="cls-3" d="M13.84,26.63s1.32.45,2.58,1c.32.14.66.23.95.38a3.21,3.21,0,0,1,.69.55,2.9,2.9,0,0,1,.54.77l-.06.11a3.24,3.24,0,0,1-1.77-.38c-.28-.17-.52-.42-.81-.62-1.11-.8-2.17-1.7-2.17-1.7Z"/><path class="cls-3" d="M84.44,7.55s.58-2,1.27-3.94c.18-.48.29-1,.48-1.44A6.83,6.83,0,0,1,86.84,1a5.63,5.63,0,0,1,.89-1l.11.05a5.53,5.53,0,0,1-.14,1.34,6.72,6.72,0,0,1-.4,1.26c-.2.44-.5.87-.74,1.33-1,1.83-2,3.61-2,3.61Z"/><path class="cls-3" d="M97.52,19.86,105,12c1.86-2,3.73-3.92,5.16-5.36s2.37-2.41,2.37-2.41h0s-.91,1-2.31,2.47-3.26,3.43-5.14,5.37l-7.53,7.76Z"/><path class="cls-3" d="M18.57,50.38,9.28,48.94c-2.33-.35-4.65-.71-6.39-1S0,47.41,0,47.41H0s1.17.15,2.91.42,4.07.62,6.39,1l9.27,1.53Z"/><path class="cls-3" d="M41.48,9.35s-1-.79-2-1.61c-.24-.21-.5-.4-.72-.6a5.77,5.77,0,0,1-.54-.61,3.51,3.51,0,0,1-.42-.69l0,0a4.25,4.25,0,0,1,.71.41,3.92,3.92,0,0,1,.63.51c.21.21.41.46.62.69.86.93,1.69,1.9,1.69,1.9Z"/><path class="cls-6" d="M86.34,60.51c-5.61-1.74-6.63-4-7.36-5.52-1.45-2.93,4-9.47,6.71-11.26-6.15,2.45-10.63,2-12.38-.73-2-3.15-2.89-7.5-4.2-11.15-1.11,5.67-2,9.06-6.35,12.26s-9.43-1-14.66-2.92c3.76,3.5,6.34,8,5.12,11.39-.83,2.3-3,4.81-9.66,6.07,4.59,1.67,14.37,1.14,11.22,15.4C57.08,71,61,67.81,65,68s7.67,3.73,9.85,7a14.81,14.81,0,0,1,2.47-11C79.59,61.09,82.62,60.81,86.34,60.51Z"/><path class="cls-5" d="M79.78,59.07c-3.73-1.16-4.41-2.68-4.9-3.67-1-1.95,2.34-6.72,4.15-7.91-4.09,1.62-6.75,1.78-7.92-.06-1.32-2.1-1.47-5.25-2.34-7.68C68,43.52,67,46,64.1,48.17s-6.26-.67-9.75-1.94c2.51,2.32,4.22,5.28,3.41,7.56-.55,1.54-2,3.2-6.42,4,3,1.11,9,.6,6.93,10.07,1.53-2.05,4.69-4,7.33-3.87s5.11,2.49,6.55,4.66a9.86,9.86,0,0,1,1.64-7.34C75.29,59.45,77.3,59.27,79.78,59.07Z"/><path class="cls-4" d="M63.5,56.54a3.59,3.59,0,0,1,1.9.12c.59.26,1.1.88.88,1.47a3.06,3.06,0,0,1,2-2.06,9.57,9.57,0,0,1,3.06-.5,1.81,1.81,0,0,1-.81-1.47,6.42,6.42,0,0,1,.22-1.9,2.67,2.67,0,0,1-2.13-.56,3.25,3.25,0,0,1-1.1-2.16,3.65,3.65,0,0,1-4.85,2.93,1.49,1.49,0,0,1,1.19.84,2.41,2.41,0,0,1,.25,1.4A5.1,5.1,0,0,1,63.5,56.54Z"/></g></g></svg>