<svg xmlns="http://www.w3.org/2000/svg" viewBox="0 0 118.26 92.05"><defs><style>.cls-1{fill:#e69e39;}.cls-2{fill:#e8e8e8;}.cls-3{fill:#de892f;}.cls-4{fill:#4b6373;}</style></defs><title>hit</title><g id="Layer_2" data-name="Layer 2"><g id="Layer_2-2" data-name="Layer 2"><path class="cls-1" d="M81.8,36.38a8.69,8.69,0,0,0-14.73-8.77,8.69,8.69,0,0,0-15,7.76c0,.12.07.22.1.34a6.14,6.14,0,1,0-6.87,10.07A8.63,8.63,0,0,0,48.5,60.62a9.88,9.88,0,0,0,12.34,9.66,9.86,9.86,0,0,0,5.74-4A9.92,9.92,0,0,0,83.5,57.93h0A11,11,0,0,0,81.8,36.38Z"/><path class="cls-2" d="M48.69,36.52a7.42,7.42,0,0,1,5.36.66,6.62,6.62,0,0,1-.39-1.11,6.7,6.7,0,0,1,12.57-4.48,7.88,7.88,0,1,1,12.91,9,8.78,8.78,0,0,1,2-.76,8.91,8.91,0,0,1,10.57,5.64,8.46,8.46,0,0,0-.16-.85,11,11,0,0,0-9.7-8.23,8.69,8.69,0,0,0-14.73-8.77,8.69,8.69,0,0,0-15,7.76c0,.12.07.22.1.34A6.13,6.13,0,0,0,43,43.79,7.47,7.47,0,0,1,48.69,36.52Z"/><path class="cls-2" d="M55.94,37.5a6.74,6.74,0,0,1,1.83-.19,4.37,4.37,0,0,0-3.57-.63A4.45,4.45,0,0,0,51,42.08l.06.18A6.85,6.85,0,0,1,55.94,37.5Z"/><path class="cls-2" d="M71.19,35.18a5.14,5.14,0,0,0-10,.31A6.79,6.79,0,0,1,65,33.27,6.86,6.86,0,0,1,71.19,35.18Z"/><path class="cls-2" d="M72.46,39.63l.58-.17a6.86,6.86,0,0,1,8.33,5,6.68,6.68,0,0,1,.21,1.45,5.71,5.71,0,0,0-6.46-8.17,5.76,5.76,0,0,0-2.75,1.62,2.76,2.76,0,0,1,.08.27Z"/><path class="cls-3" d="M75.31,65.83a8.45,8.45,0,0,1-8.8-3.09,7.4,7.4,0,0,1-13.63-1.81,7.31,7.31,0,0,1-.12-3.08,7.4,7.4,0,0,1-6.85-5.58,7.24,7.24,0,0,1-.11-3.1,7.55,7.55,0,0,0-.73,5.56,7.64,7.64,0,0,0,5.29,5.47,8.6,8.6,0,0,0,.26,2.18,8.77,8.77,0,0,0,15.74,2.81,8.76,8.76,0,0,0,15-5.2A8.43,8.43,0,0,1,75.31,65.83Z"/><path class="cls-3" d="M58.38,57.26a7.4,7.4,0,0,0,13.4,3.37,8.43,8.43,0,0,1-13.4-3.37Z"/><path class="cls-4" d="M66.14,20s-.08-1.25-.19-3.12c-.1-1.61-.2-4-.33-6.88-.05-1.25-.16-2.5-.18-3.67s.08-2.27.17-3.2A23.76,23.76,0,0,1,66.1,0h.15a22.62,22.62,0,0,1,.5,3.12c.1.94.17,2,.18,3.21s-.12,2.42-.17,3.67c-.1,2.5-.19,5-.3,6.87S66.28,20,66.28,20Z"/><path class="cls-4" d="M87.73,32.32c2.54-2.18,2.53-2.19,6-5.09.75-.64,1.49-1.28,2.21-1.86s1.42-1.09,2-1.51,1.12-.76,1.49-1l.58-.35,0,.06-.48.49c-.3.31-.75.72-1.3,1.23s-1.2,1.05-1.92,1.63-1.52,1.15-2.31,1.74c-3.14,2.38-6.32,4.71-6.32,4.71Z"/><path class="cls-4" d="M43.69,63.36s-4.16,3.1-8.36,6.16c-1,.77-2.08,1.55-3.07,2.26-.5.34-1,.68-1.45,1l-1.32.86-1.13.7-.88.52-.78.44,0,0,.67-.59.8-.65c.31-.24.65-.53,1-.83l1.25-1c.45-.34.93-.67,1.42-1,1-.69,2.09-1.4,3.17-2.12,4.3-2.91,8.64-5.76,8.64-5.76Z"/><path class="cls-4" d="M47.83,29.9s-.59-.53-1.45-1.36-2-1.94-3.13-3.05c-.56-.56-1.17-1.08-1.67-1.62a13,13,0,0,1-1.22-1.63,10.06,10.06,0,0,1-1-1.8l.11-.1a10.15,10.15,0,0,1,1.68,1.16,14.39,14.39,0,0,1,1.48,1.4c.48.57.93,1.23,1.42,1.85,1,1.35,1.95,2.49,2.66,3.46s1.19,1.6,1.19,1.6Z"/><path class="cls-4" d="M88.33,59.65l1.56,1.23c.94.74,2.16,1.76,3.38,2.77.61.51,1.26,1,1.81,1.47a12.14,12.14,0,0,1,1.36,1.52,9.56,9.56,0,0,1,1.11,1.71l-.1.1a9.39,9.39,0,0,1-1.77-1,12.78,12.78,0,0,1-1.59-1.27c-.54-.52-1-1.14-1.58-1.72-1.08-1.17-2.17-2.32-3-3.22s-1.32-1.49-1.32-1.49Z"/><path class="cls-4" d="M66.59,73.42s0,4.66-.06,9.32c0,1.16,0,2.33,0,3.42,0,.55,0,1.08-.08,1.57s-.07,1-.11,1.41-.08.84-.11,1.19-.07.66-.11.92c-.06.51-.11.8-.11.8h-.07s0-.29-.06-.8c0-.26,0-.57,0-.92s0-.76,0-1.2,0-.91,0-1.41,0-1,0-1.57c0-1.09.13-2.26.2-3.42.25-4.65.55-9.3.55-9.3Z"/><path class="cls-4" d="M40.38,46.07,37.27,46c-1.87-.07-4.35-.21-6.84-.34-1.24-.07-2.49-.08-3.65-.18s-2.23-.29-3.15-.47a22.71,22.71,0,0,1-3.05-.78V44a23.45,23.45,0,0,1,3.14-.19c.94,0,2,0,3.19.14s2.39.35,3.62.51c2.26.31,4.66.62,6.77,1l3.08.48Z"/><path class="cls-4" d="M97.29,44.12l3.23-1c1.93-.61,4.53-1.36,7.12-2.12,1.29-.38,2.57-.81,3.8-1.13s2.39-.53,3.39-.69a27.71,27.71,0,0,1,3.39-.35l0,.13a26,26,0,0,1-3.16,1.3c-.95.34-2.08.7-3.31,1s-2.88,1.06-4.2,1.35c-2.64.55-5,.59-7,1l-3.32.65Z"/><path class="cls-4" d="M46.38,73l.28.33c.18.21.45.5.78.82A9.68,9.68,0,0,0,50.22,76a9.25,9.25,0,0,0,1.69.55,10.69,10.69,0,0,0,1.56.21c.46,0,.85,0,1.13,0l.44,0s-.15.07-.41.16a5.87,5.87,0,0,1-1.15.26,6.68,6.68,0,0,1-1.67,0,6.86,6.86,0,0,1-1.87-.51,7.22,7.22,0,0,1-1.65-1,7.12,7.12,0,0,1-1.15-1.21,5.32,5.32,0,0,1-.59-1A3.84,3.84,0,0,1,46.38,73Z"/><path class="cls-4" d="M84.56,23.28l-.24-.37a9.13,9.13,0,0,0-.66-.92,9.24,9.24,0,0,0-2.49-2.21,8.37,8.37,0,0,0-1.6-.77,9.78,9.78,0,0,0-1.52-.42,9.31,9.31,0,0,0-1.12-.16l-.44,0a4,4,0,0,1,.44-.1,5.08,5.08,0,0,1,1.16-.1,6.48,6.48,0,0,1,1.66.23,7.29,7.29,0,0,1,1.78.76c.56.35.76,1.09,1.17,1.55s1.07.61,1.3,1a5.84,5.84,0,0,1,.45,1.08C84.53,23.12,84.56,23.28,84.56,23.28Z"/><path class="cls-4" d="M86.67,15.83s-.21-.23-.5-.52a6,6,0,0,0-1.13-.9,7.31,7.31,0,0,0-.68-.35l-.64-.24-.7-.2a2,2,0,0,1,.74-.2,2.46,2.46,0,0,1,.79.06,3.22,3.22,0,0,1,.85.34,2.83,2.83,0,0,1,1.1,1.27A2,2,0,0,1,86.67,15.83Z"/><path class="cls-4" d="M44,80s.29.31.74.7a7.06,7.06,0,0,0,1.78,1.12,7.25,7.25,0,0,0,1,.36c.35.08.69.13,1,.17.59.06,1,.06,1,.06l-.26.12a3.32,3.32,0,0,1-.74.22,4.39,4.39,0,0,1-1.1,0,4.66,4.66,0,0,1-1.23-.32,4.4,4.4,0,0,1-1.08-.68,3.81,3.81,0,0,1-.72-.82,3.15,3.15,0,0,1-.35-.68A1.89,1.89,0,0,1,44,80Z"/><path class="cls-4" d="M80.79,78.6l1.4,3.83c.51,1.38.76,2.14.92,2.65.23.73.36,1.23.36,1.23h0s-.2-.47-.47-1.18-.61-1.68-.93-2.65L80.77,78.6Z"/><path class="cls-4" d="M22.49,56.39,11.25,57.45c-2.81.27-5.62.54-7.73.69S0,58.4,0,58.4v0s1.4-.16,3.51-.37,4.92-.46,7.73-.7l11.25-.94Z"/></g></g></svg>