<svg xmlns="http://www.w3.org/2000/svg" viewBox="0 0 29.81 67.15"><defs><style>.cls-1{fill:#434349;}.cls-2{fill:#fcd329;}.cls-3{fill:#e5c028;}.cls-4{fill:#34343a;}</style></defs><title>missile5</title><g id="Layer_2" data-name="Layer 2"><g id="Layer_2-2" data-name="Layer 2"><path class="cls-1" d="M8.83,18.1V9.24a4.55,4.55,0,0,1,.82-2.56L13.83.48A1.44,1.44,0,0,1,16,.48l4.18,6.2A4.55,4.55,0,0,1,21,9.24V18.1l2.36,1.66V34.44l-2.26,1.88V59H8.73V36.32L6.47,34.44V19.76Z"/><polygon class="cls-2" points="6.47 34.44 6.47 19.76 8.83 18.1 20.98 18.1 23.34 19.76 23.34 34.44 6.47 34.44"/><polygon class="cls-3" points="6.47 19.76 8.83 18.1 20.98 18.1 23.34 19.76 6.47 19.76"/><polygon class="cls-3" points="23.34 34.44 21.08 36.32 8.73 36.32 6.47 34.44 23.34 34.44"/><rect class="cls-4" x="8.83" y="16.81" width="12.14" height="1.29"/><rect class="cls-4" x="8.73" y="42.03" width="12.35" height="1.45"/><polygon class="cls-2" points="21.08 46.64 28.75 54.09 29.81 67.15 23.63 67.15 22.31 60.93 21.08 58.97 21.08 46.64"/><polygon class="cls-2" points="8.73 46.64 1.06 54.09 0 67.15 6.17 67.15 7.5 60.93 8.73 58.97 8.73 46.64"/><polygon class="cls-2" points="13.96 46.64 15.85 46.64 16.41 55.12 16.41 67.15 13.4 67.15 13.4 55.12 13.96 46.64"/><path class="cls-2" d="M11.73,3.6a7.68,7.68,0,0,0,3.17.67,7.69,7.69,0,0,0,3.18-.67L16,.48a1.44,1.44,0,0,0-2.15,0Z"/></g></g></svg>