<svg xmlns="http://www.w3.org/2000/svg" viewBox="0 0 24.72 55.66"><defs><style>.cls-1{fill:#3f5e75;}.cls-2{fill:#2e4f63;}.cls-3{fill:#5e8ca8;}</style></defs><title>missile2</title><g id="Layer_2" data-name="Layer 2"><g id="Layer_2-2" data-name="Layer 2"><path class="cls-1" d="M12.36,0h0a2,2,0,0,1,1.88,1.31L17.8,11.4l-1.14,8V25L15,26.55v9.06H9.69V26.55L8.07,25v-5.6l-1.15-8L10.49,1.31A1.93,1.93,0,0,1,12.36,0Z"/><polygon class="cls-2" points="16.66 25.04 15.03 26.55 9.69 26.55 8.06 25.04 8.06 19.44 16.66 19.44 16.66 25.04"/><rect class="cls-3" x="8.07" y="19.44" width="8.59" height="5.61"/><path class="cls-3" d="M6.93,11.87H17.79a.47.47,0,0,0,.48-.44h0a.47.47,0,0,0-.48-.44H6.93a.46.46,0,0,0-.47.44h0A.46.46,0,0,0,6.93,11.87Z"/><path class="cls-2" d="M0,55.66H24.72L22.64,39.15,15,32.44l-.52.23a5.44,5.44,0,0,1-4.3,0l-.52-.23L2.08,39.15ZM17,43.39a1.18,1.18,0,0,1,.39-.87,1.38,1.38,0,0,1,.95-.36,1.29,1.29,0,0,1,1.34,1.23v9.13a1.34,1.34,0,0,1-2.68,0Zm-12,0a1.18,1.18,0,0,1,.39-.87,1.38,1.38,0,0,1,1-.36,1.29,1.29,0,0,1,1.34,1.23v9.13a1.29,1.29,0,0,1-1.34,1.23A1.29,1.29,0,0,1,5,52.52Z"/></g></g></svg>