<svg xmlns="http://www.w3.org/2000/svg" viewBox="0 0 30.43 50.15"><defs><style>.cls-1{fill:#fc3232;}.cls-2{fill:#cc2121;}.cls-3{fill:#a0a2a1;}.cls-4{fill:#707773;}</style></defs><title>missile6</title><g id="Layer_2" data-name="Layer 2"><g id="Layer_2-2" data-name="Layer 2"><path class="cls-1" d="M23,5.09V15.36l-2.18,2.06v6.39l-.83,1V41.37H10.49V24.79l-.82-1V17.42L7.48,15.36V5.09C7.48,2.3,10.89,0,15.12,0h.19C19.54,0,23,2.3,23,5.09Z"/><polygon class="cls-2" points="9.67 17.42 7.48 15.36 22.95 15.36 20.77 17.42 9.67 17.42"/><polygon class="cls-3" points="20.77 17.42 20.77 23.81 19.94 24.79 19.94 41.37 10.49 41.37 10.49 24.79 9.67 23.81 9.67 17.42 20.77 17.42"/><polygon class="cls-4" points="10.49 24.79 9.67 23.81 20.77 23.81 19.94 24.79 10.49 24.79"/><path class="cls-4" d="M19.94,31.29s10.49-1.41,10.49,18.86H23.92l-4-8.78Z"/><path class="cls-4" d="M10.49,31.29S0,29.88,0,50.15H6.51l4-8.78Z"/><rect class="cls-4" x="13.98" y="31.29" width="2.47" height="18.86" transform="translate(30.43 81.44) rotate(180)"/></g></g></svg>