<svg xmlns="http://www.w3.org/2000/svg" viewBox="0 0 50.42 80.66"><defs><style>.cls-1{fill:#605d5d;}.cls-2{fill:#fc3232;}.cls-3{fill:#2b2a2a;}.cls-4{fill:#424141;}.cls-5{fill:#fff;}</style></defs><title>missile3</title><g id="Layer_2" data-name="Layer 2"><g id="Layer_2-2" data-name="Layer 2"><path class="cls-1" d="M14.43,52.19c-3.88-5.38-6.37-13.61-6.37-22.83C8.06,13.14,15.74,0,25.21,0S42.36,13.14,42.36,29.36c0,9.22-2.49,17.45-6.37,22.83Z"/><path class="cls-2" d="M38.6,47.69A27.81,27.81,0,0,1,36,52.19H14.43a27.81,27.81,0,0,1-2.61-4.5Z"/><path class="cls-3" d="M11,12.9a29.78,29.78,0,0,0,14.2,3.42,29.78,29.78,0,0,0,14.2-3.42C36.33,5.12,31.12,0,25.21,0S14.09,5.12,11,12.9Z"/><polygon class="cls-4" points="14.43 52.19 35.99 52.19 50.42 64.78 43.95 80.67 32.74 80.67 32.74 66.88 25.21 61.49 17.68 66.88 17.68 80.67 6.47 80.67 0 64.78 14.43 52.19"/><polygon class="cls-1" points="25.8 52.19 26.75 66.55 26.75 80.67 23.67 80.67 23.67 66.55 24.62 52.19 25.8 52.19"/><path class="cls-5" d="M19.69,30.23a7.31,7.31,0,0,0,2,4.71v2.3a.31.31,0,0,0,.32.31h.76a.28.28,0,0,0,.29-.28v-.9a.29.29,0,0,1,.3-.27h0a.28.28,0,0,1,.29.27v.9a.28.28,0,0,0,.3.28h.69a.28.28,0,0,0,.3-.28v-.9a.28.28,0,0,1,.29-.27h0a.28.28,0,0,1,.29.27v.9a.29.29,0,0,0,.3.28h.7a.28.28,0,0,0,.29-.28v-.9a.28.28,0,0,1,.29-.27h0a.28.28,0,0,1,.3.27v.9a.28.28,0,0,0,.29.28h.76a.31.31,0,0,0,.32-.31v-2.3a7.31,7.31,0,0,0,2-4.71c0-2.85-2.47-4.7-5.52-4.7S19.69,27.38,19.69,30.23Zm5.87,1.17A1.83,1.83,0,1,1,27.37,33,1.72,1.72,0,0,1,25.56,31.4Zm-4.33,0A1.84,1.84,0,1,1,23.05,33,1.72,1.72,0,0,1,21.23,31.4Z"/><path class="cls-5" d="M13.06,27.88a1.26,1.26,0,0,1,.89-1,1.22,1.22,0,0,1,0-1.4,1.43,1.43,0,0,1,1.94-.21,1.33,1.33,0,0,1,.6,1.37l2.38.92L18,29.64l-2.28-.89a1.49,1.49,0,0,1-1.45.58A1.33,1.33,0,0,1,13.06,27.88Z"/><path class="cls-5" d="M36.91,34.58a1.24,1.24,0,0,1-.88,1A1.2,1.2,0,0,1,36,37a1.42,1.42,0,0,1-1.94.21,1.32,1.32,0,0,1-.59-1.37l-2.38-.93.88-2,2.28.89a1.48,1.48,0,0,1,1.44-.58A1.32,1.32,0,0,1,36.91,34.58Z"/><path class="cls-5" d="M14.5,37a1.19,1.19,0,0,1-.1-1.29,1.29,1.29,0,0,1-1-1,1.34,1.34,0,0,1,1.22-1.46,1.47,1.47,0,0,1,1.44.57l2.37-.94.9,2-2.28.9a1.33,1.33,0,0,1-.58,1.38A1.43,1.43,0,0,1,14.5,37Z"/><path class="cls-5" d="M36.24,25.46a1.19,1.19,0,0,1,.09,1.29,1.29,1.29,0,0,1,1,1,1.34,1.34,0,0,1-1.21,1.46,1.48,1.48,0,0,1-1.45-.57l-2.37.94-.9-2,2.28-.9a1.35,1.35,0,0,1,.58-1.38A1.44,1.44,0,0,1,36.24,25.46Z"/></g></g></svg>