<svg xmlns="http://www.w3.org/2000/svg" viewBox="0 0 18.5 37.66"><defs><style>.cls-1{fill:#424141;}.cls-2{fill:#2b2a2a;}.cls-3{fill:#cc2121;}</style></defs><title>missile1</title><g id="Layer_2" data-name="Layer 2"><g id="Layer_2-2" data-name="Layer 2"><path class="cls-1" d="M4.56,36.58V33a4,4,0,0,1,3.81-4.18h1.77A4,4,0,0,1,13.94,33v3.61a1,1,0,0,0,1,1.08h2.59a1,1,0,0,0,1-1.28l-1.72-9.8-4.07-4.93H5.81L1.74,26.58,0,36.38a1.05,1.05,0,0,0,1,1.28H3.58A1,1,0,0,0,4.56,36.58Z"/><path class="cls-1" d="M9.25,23.62h0A5,5,0,0,0,14,18.46V5.16A5,5,0,0,0,9.25,0h0a5,5,0,0,0-4.7,5.16v13.3A5,5,0,0,0,9.25,23.62Z"/><path class="cls-2" d="M4.55,17.31v1.15a5,5,0,0,0,4.7,5.16A5,5,0,0,0,14,18.46V17.32a5.07,5.07,0,0,1-4.7,3.62A5.08,5.08,0,0,1,4.55,17.31Z"/><path class="cls-2" d="M9.25,37.66h0a.79.79,0,0,0,.75-.82V26.37a.79.79,0,0,0-.75-.83h0a.8.8,0,0,0-.75.83V36.84A.79.79,0,0,0,9.25,37.66Z"/><path class="cls-3" d="M4.57,4.81a16.28,16.28,0,0,0,4.68.67,16.35,16.35,0,0,0,4.69-.67A4.93,4.93,0,0,0,9.25,0,4.48,4.48,0,0,0,5.93,1.52,5.32,5.32,0,0,0,4.57,4.81Z"/></g></g></svg>