<svg xmlns="http://www.w3.org/2000/svg" viewBox="0 0 57.81 90.07"><defs><style>.cls-1{fill:#fc3232;}.cls-2{fill:#424141;}.cls-3{fill:#2b2a2a;}.cls-4{fill:#fcd329;}</style></defs><title>missile4</title><g id="Layer_2" data-name="Layer 2"><g id="Layer_2-2" data-name="Layer 2"><polygon class="cls-1" points="37.07 61.52 57.81 73.38 57.81 90.07 33.03 77.83 37.07 61.52"/><polygon class="cls-1" points="20.75 61.52 0 73.38 0 90.07 24.78 77.83 20.75 61.52"/><path class="cls-2" d="M26.38,1a3.79,3.79,0,0,1,5.06,0C36.11,5.18,45.6,15.15,45.22,26.53c-.32,9.92-7.28,36.23-12,51.3H24.59c-4.72-15.07-11.67-41.38-12-51.3C12.22,15.15,21.7,5.18,26.38,1Z"/><path class="cls-3" d="M34.25,74.49c-.35,1.16-.7,2.28-1,3.34H24.59c-.33-1.06-.67-2.18-1-3.34Z"/><polygon class="cls-1" points="28.05 61.52 29.76 61.52 31.43 90.07 26.39 90.07 28.05 61.52"/><path class="cls-4" d="M26.9,30.29a2,2,0,1,0,2-2A2,2,0,0,0,26.9,30.29Z"/><path class="cls-4" d="M23.49,22.24a9.76,9.76,0,0,0-4.34,7.51.59.59,0,0,0,.59.62h5.77a.6.6,0,0,0,.59-.5,2.85,2.85,0,0,1,1-1.68.6.6,0,0,0,.14-.76l-2.88-5A.59.59,0,0,0,23.49,22.24Zm15.18,7.51a9.79,9.79,0,0,0-4.34-7.51.59.59,0,0,0-.84.2l-2.89,5a.61.61,0,0,0,.14.76,2.86,2.86,0,0,1,1,1.68.59.59,0,0,0,.58.5h5.77A.59.59,0,0,0,38.67,29.75ZM24.32,38.31a.59.59,0,0,0,.25.83,9.81,9.81,0,0,0,8.67,0,.59.59,0,0,0,.25-.83l-2.89-5a.59.59,0,0,0-.72-.25,2.83,2.83,0,0,1-1,.17,2.93,2.93,0,0,1-1-.17.59.59,0,0,0-.72.25Z"/><path class="cls-4" d="M17.53,30.29A11.38,11.38,0,1,1,28.91,41.67,11.38,11.38,0,0,1,17.53,30.29Zm.8,0A10.58,10.58,0,1,0,28.91,19.71,10.59,10.59,0,0,0,18.33,30.29Z"/></g></g></svg>